<svg width="676" height="422" viewBox="0 0 676 422" fill="none" xmlns="http://www.w3.org/2000/svg">
<path d="M629.768 49.913H97.531C82.067 49.913 69.531 62.449 69.531 77.913V391.6C69.531 407.064 82.067 419.6 97.531 419.6H629.768C645.232 419.6 657.768 407.064 657.768 391.6V77.913C657.768 62.449 645.232 49.913 629.768 49.913Z" fill="white" stroke="#E5E7EB" stroke-width="4"/>
<path d="M573.705 77.0911H532.94C526.54 77.0911 521.351 82.2794 521.351 88.6796C521.351 95.0797 526.54 100.268 532.94 100.268H573.705C580.106 100.268 585.294 95.0797 585.294 88.6796C585.294 82.2794 580.106 77.0911 573.705 77.0911Z" fill="white" stroke="#E5E7EB" stroke-width="4"/>
<path d="M487.644 77.0911H446.879C440.479 77.0911 435.29 82.2794 435.29 88.6796C435.29 95.0797 440.479 100.268 446.879 100.268H487.644C494.044 100.268 499.233 95.0797 499.233 88.6796C499.233 82.2794 494.044 77.0911 487.644 77.0911Z" fill="white" stroke="#E5E7EB" stroke-width="4"/>
<path d="M413.172 88.6796C413.172 82.2794 407.984 77.0911 401.583 77.0911C395.183 77.0911 389.995 82.2794 389.995 88.6796C389.995 95.0797 395.183 100.268 401.583 100.268C407.984 100.268 413.172 95.0797 413.172 88.6796Z" fill="white" stroke="#E5E7EB" stroke-width="4"/>
<path d="M143.053 292.315H222.111V321.268H255.407V292.315H275.835V264.407H255.407V156.557H211.816L143.053 264.89V292.315ZM222.754 264.407H178.118V263.12L221.467 194.518H222.754V264.407V264.407ZM363.618 324.887C405.037 324.887 430.049 293.36 430.13 239.073C430.21 185.189 404.876 154.305 363.618 154.305C322.28 154.305 297.187 185.108 297.107 239.073C296.946 293.199 322.119 324.806 363.618 324.887V324.887ZM363.618 296.014C344.719 296.014 332.494 277.034 332.574 239.073C332.655 201.676 344.799 182.856 363.618 182.856C382.357 182.856 394.582 201.676 394.582 239.073C394.662 277.034 382.438 296.014 363.618 296.014ZM452.468 292.315H531.526V321.268H564.822V292.315H585.25V264.407H564.822V156.557H521.231L452.468 264.89V292.315V292.315ZM532.169 264.407H487.533V263.12L530.882 194.518H532.169V264.407V264.407Z" fill="#E5E7EB"/>
<path d="M125.547 86.4151C125.547 81.2656 121.373 77.0911 116.223 77.0911C111.074 77.0911 106.899 81.2656 106.899 86.4151C106.899 91.5646 111.074 95.7391 116.223 95.7391C121.373 95.7391 125.547 91.5646 125.547 86.4151Z" fill="white" stroke="#E5E7EB" stroke-width="4"/>
<path d="M77.198 298.712C83.7332 298.712 89.031 304.01 89.031 310.545C89.031 317.08 83.7332 322.378 77.198 322.378C70.6628 322.378 65.365 317.08 65.365 310.545C65.365 304.01 70.6628 298.712 77.198 298.712Z" fill="#0E9F6E"/>
<path d="M666.904 170.957C658.979 175.532 648.846 172.817 644.27 164.892C639.695 156.967 642.41 146.834 650.335 142.258C658.26 137.683 668.393 140.398 672.969 148.323C677.544 156.248 674.829 166.381 666.904 170.957Z" fill="#0E9F6E"/>
<path d="M357.313 100.921C350.493 100.921 344.964 95.3922 344.964 88.572C344.964 81.7519 350.493 76.223 357.313 76.223C364.133 76.223 369.662 81.7519 369.662 88.572C369.662 95.3922 364.133 100.921 357.313 100.921Z" fill="#E5E7EB"/>
<path d="M209.66 59.268C218.737 59.268 226.095 51.9097 226.095 42.8329C226.095 33.7561 218.737 26.3979 209.66 26.3979C200.583 26.3979 193.225 33.7561 193.225 42.8329C193.225 51.9097 200.583 59.268 209.66 59.268Z" fill="#0E9F6E"/>
<path d="M444.614 341.2C437.109 341.2 431.025 347.284 431.025 354.789C431.025 362.294 437.109 368.378 444.614 368.378C452.119 368.378 458.203 362.294 458.203 354.789C458.203 347.284 452.119 341.2 444.614 341.2Z" fill="#0E9F6E"/>
<path d="M193.26 393.358C186.362 393.358 180.77 387.766 180.77 380.868C180.77 373.97 186.362 368.378 193.26 368.378C200.158 368.378 205.75 373.97 205.75 380.868C205.75 387.766 200.158 393.358 193.26 393.358Z" fill="#E5E7EB"/>
<path d="M318.267 334.557C322.744 337.141 324.278 342.866 321.693 347.343C319.109 351.82 313.384 353.353 308.907 350.769C304.43 348.184 302.897 342.46 305.481 337.983C308.066 333.506 313.79 331.972 318.267 334.557Z" fill="#E5E7EB"/>
<path d="M626.957 74.4778L609.933 91.5021C609.313 92.1223 609.313 93.1276 609.933 93.7475C610.553 94.3675 611.558 94.3673 612.178 93.7472L629.202 76.7229C629.822 76.1027 629.823 75.0974 629.203 74.4774C628.583 73.8575 627.577 73.8577 626.957 74.4778Z" fill="#E5E7EB"/>
<path d="M625.291 86.6676L620.382 91.5771C619.762 92.1972 619.762 93.2025 620.382 93.8225C621.002 94.4424 622.007 94.4423 622.627 93.8221L627.536 88.9127C628.157 88.2925 628.157 87.2872 627.537 86.6673C626.917 86.0473 625.912 86.0475 625.291 86.6676Z" fill="#E5E7EB"/>
<path d="M101.886 375.044L86.652 390.278C86.0975 390.832 86.0975 391.732 86.652 392.286L86.6527 392.287C87.2073 392.841 88.1064 392.841 88.6609 392.287L103.895 377.053C104.449 376.498 104.449 375.599 103.895 375.045L103.894 375.044C103.34 374.489 102.44 374.489 101.886 375.044Z" fill="#E5E7EB"/>
<path d="M100.395 385.95L96.001 390.344C95.4465 390.898 95.4465 391.798 96.001 392.352L96.0018 392.353C96.5563 392.907 97.4554 392.907 98.0099 392.353L102.404 387.959C102.958 387.404 102.958 386.505 102.404 385.951L102.403 385.95C101.849 385.395 100.95 385.395 100.395 385.95Z" fill="#E5E7EB"/>
<path d="M28.0594 78.7866L57.5082 49.3377C58.5806 48.2653 58.5806 46.5267 57.5082 45.4543C56.4359 44.3819 54.6972 44.3819 53.6248 45.4543L24.1759 74.9032C23.1035 75.9755 23.1035 77.7142 24.1759 78.7866C25.2483 79.859 26.987 79.859 28.0594 78.7866Z" fill="#E5E7EB"/>
<path d="M30.9432 57.7017L39.4362 49.2087C40.5086 48.1363 40.5086 46.3976 39.4362 45.3253C38.3638 44.2529 36.6252 44.2529 35.5528 45.3252L27.0597 53.8183C25.9873 54.8907 25.9874 56.6294 27.0597 57.7017C28.1321 58.7741 29.8708 58.7741 30.9432 57.7017Z" fill="#E5E7EB"/>
<path d="M612.911 395.566L633.642 374.834C634.397 374.079 634.397 372.855 633.642 372.1C632.887 371.345 631.663 371.345 630.908 372.1L610.177 392.832C609.422 393.587 609.422 394.811 610.177 395.566C610.932 396.32 612.156 396.32 612.911 395.566Z" fill="#E5E7EB"/>
<path d="M614.94 380.723L620.919 374.744C621.674 373.989 621.674 372.765 620.919 372.01C620.164 371.255 618.94 371.255 618.186 372.01L612.206 377.989C611.451 378.744 611.451 379.968 612.206 380.723C612.961 381.478 614.185 381.478 614.94 380.723Z" fill="#E5E7EB"/>
<path fill-rule="evenodd" clip-rule="evenodd" d="M598.929 13.773H602.233C603.032 13.773 603.675 14.423 603.675 15.215V18.519C603.675 19.318 603.025 19.961 602.233 19.961H598.929C598.137 19.961 597.487 19.311 597.487 18.519V15.215C597.487 15.0256 597.524 14.8379 597.596 14.6627C597.668 14.4876 597.774 14.3285 597.908 14.1945C598.042 14.0605 598.202 13.9543 598.377 13.882C598.552 13.8097 598.739 13.7726 598.929 13.773V13.773ZM610.384 13.773H613.688C614.48 13.773 615.13 14.423 615.13 15.215V18.519C615.13 19.318 614.48 19.961 613.688 19.961H610.384C609.592 19.961 608.942 19.311 608.942 18.519V15.215C608.942 14.423 609.592 13.773 610.384 13.773ZM621.847 13.773H625.151C625.944 13.773 626.594 14.423 626.594 15.215V18.519C626.594 19.318 625.944 19.961 625.151 19.961H621.847C621.055 19.961 620.405 19.311 620.405 18.519V15.215C620.405 15.0256 620.442 14.8379 620.514 14.6627C620.586 14.4876 620.692 14.3285 620.826 14.1945C620.96 14.0605 621.119 13.9543 621.295 13.882C621.47 13.8097 621.657 13.7726 621.847 13.773V13.773ZM633.303 13.773H636.607C637.399 13.773 638.049 14.423 638.049 15.215V18.519C638.049 19.318 637.399 19.961 636.607 19.961H633.303C632.92 19.9608 632.553 19.809 632.281 19.5388C632.01 19.2687 631.856 18.902 631.854 18.519V15.215C631.858 14.8327 632.012 14.4673 632.283 14.1976C632.554 13.9278 632.921 13.7754 633.303 13.773V13.773ZM644.759 13.773H648.063C648.862 13.773 649.512 14.423 649.512 15.215V18.519C649.512 19.318 648.862 19.961 648.063 19.961H644.759C643.967 19.961 643.317 19.311 643.317 18.519V15.215C643.317 14.423 643.967 13.773 644.759 13.773ZM610.804 26.265H614.108C614.901 26.265 615.551 26.915 615.551 27.707V31.018C615.551 31.81 614.901 32.46 614.108 32.46H610.804C610.005 32.46 609.362 31.81 609.362 31.018V27.714C609.361 27.524 609.397 27.3356 609.469 27.1597C609.541 26.9839 609.647 26.824 609.781 26.6893C609.915 26.5546 610.075 26.4477 610.25 26.3749C610.426 26.3021 610.614 26.2648 610.804 26.265V26.265ZM622.26 26.265H625.564C626.356 26.265 627.006 26.915 627.006 27.707V31.018C627.006 31.81 626.356 32.46 625.564 32.46H622.26C621.468 32.46 620.818 31.81 620.818 31.018V27.714C620.817 27.524 620.853 27.3356 620.925 27.1597C620.997 26.9839 621.103 26.824 621.237 26.6893C621.371 26.5546 621.531 26.4477 621.706 26.3749C621.882 26.3021 622.07 26.2648 622.26 26.265V26.265ZM633.716 26.265H637.02C637.819 26.265 638.469 26.915 638.469 27.707V31.018C638.467 31.401 638.313 31.7677 638.042 32.0378C637.77 32.308 637.403 32.4598 637.02 32.46H633.716C632.924 32.46 632.274 31.81 632.274 31.018V27.714C632.274 26.915 632.924 26.265 633.716 26.265ZM621.847 0.35303H625.151C625.944 0.35303 626.594 1.00303 626.594 1.79503V5.10003C626.594 5.89803 625.944 6.54203 625.151 6.54203H621.847C621.055 6.54203 620.405 5.89203 620.405 5.10003V1.79503C620.405 1.60555 620.442 1.41787 620.514 1.24274C620.586 1.06761 620.692 0.908482 620.826 0.774501C620.96 0.64052 621.119 0.534321 621.295 0.461993C621.47 0.389666 621.657 0.352635 621.847 0.35303V0.35303ZM633.303 0.35303H636.607C637.399 0.35303 638.049 1.00303 638.049 1.79503V5.10003C638.049 5.89803 637.399 6.54203 636.607 6.54203H633.303C632.92 6.54178 632.553 6.38999 632.281 6.11982C632.01 5.84964 631.856 5.48304 631.854 5.10003V1.79503C631.858 1.41268 632.012 1.04728 632.283 0.777553C632.554 0.507828 632.921 0.355368 633.303 0.35303V0.35303ZM2.16295 403.313H5.46695C6.26595 403.313 6.90895 403.963 6.90895 404.755V408.059C6.90895 408.858 6.25895 409.501 5.46695 409.501H2.16295C1.37095 409.501 0.72095 408.851 0.72095 408.059V404.755C0.720555 404.566 0.757586 404.378 0.829913 404.203C0.902241 404.028 1.00844 403.868 1.14242 403.734C1.2764 403.601 1.43552 403.494 1.61065 403.422C1.78578 403.35 1.97347 403.313 2.16295 403.313V403.313ZM13.6179 403.313H16.9219C17.7149 403.313 18.3649 403.963 18.3649 404.755V408.059C18.3649 408.858 17.7149 409.501 16.9219 409.501H13.6179C12.8259 409.501 12.176 408.851 12.176 408.059V404.755C12.176 403.963 12.8259 403.313 13.6179 403.313ZM25.0809 403.313H28.386C29.178 403.313 29.828 403.963 29.828 404.755V408.059C29.828 408.858 29.178 409.501 28.386 409.501H25.0809C24.2889 409.501 23.639 408.851 23.639 408.059V404.755C23.6387 404.566 23.6758 404.378 23.7482 404.203C23.8206 404.028 23.9268 403.869 24.0607 403.735C24.1947 403.601 24.3537 403.495 24.5288 403.422C24.7039 403.35 24.8915 403.313 25.0809 403.313V403.313ZM36.537 403.313H39.841C40.633 403.313 41.283 403.963 41.283 404.755V408.059C41.283 408.858 40.633 409.501 39.841 409.501H36.537C36.1539 409.501 35.7866 409.349 35.5151 409.079C35.2436 408.809 35.0901 408.442 35.0879 408.059V404.755C35.0921 404.373 35.2464 404.007 35.5174 403.738C35.7884 403.468 36.1546 403.315 36.537 403.313V403.313ZM47.9929 403.313H51.2969C52.0959 403.313 52.746 403.963 52.746 404.755V408.059C52.746 408.858 52.0959 409.501 51.2969 409.501H47.9929C47.2009 409.501 46.5509 408.851 46.5509 408.059V404.755C46.5509 403.963 47.2009 403.313 47.9929 403.313ZM14.039 415.805H17.343C18.135 415.805 18.785 416.455 18.785 417.247V420.558C18.785 421.35 18.135 422 17.343 422H14.039C13.24 422 12.596 421.35 12.596 420.558V417.254C12.595 417.064 12.6317 416.876 12.7038 416.7C12.7759 416.524 12.8821 416.364 13.0162 416.229C13.1503 416.095 13.3097 415.988 13.4852 415.915C13.6607 415.842 13.8489 415.805 14.039 415.805V415.805ZM25.494 415.805H28.798C29.59 415.805 30.24 416.455 30.24 417.247V420.558C30.24 421.35 29.59 422 28.798 422H25.494C24.702 422 24.052 421.35 24.052 420.558V417.254C24.0508 417.064 24.0872 416.876 24.1592 416.7C24.2311 416.524 24.3372 416.364 24.4712 416.229C24.6053 416.095 24.7647 415.988 24.9402 415.915C25.1157 415.842 25.3039 415.805 25.494 415.805ZM36.9499 415.805H40.2539C41.0529 415.805 41.703 416.455 41.703 417.247V420.558C41.7008 420.941 41.5473 421.308 41.2758 421.578C41.0043 421.848 40.637 422 40.2539 422H36.9499C36.1579 422 35.5079 421.35 35.5079 420.558V417.254C35.5079 416.455 36.1579 415.805 36.9499 415.805ZM25.082 389.893H28.386C29.178 389.893 29.828 390.543 29.828 391.336V394.64C29.828 395.439 29.178 396.082 28.386 396.082H25.082C24.289 396.082 23.639 395.432 23.639 394.64V391.336C23.6386 391.146 23.6756 390.959 23.748 390.783C23.8204 390.608 23.9266 390.449 24.0607 390.315C24.1948 390.181 24.354 390.074 24.5293 390.002C24.7045 389.93 24.8923 389.893 25.082 389.893V389.893ZM36.537 389.893H39.841C40.633 389.893 41.283 390.543 41.283 391.336V394.64C41.283 395.439 40.633 396.082 39.841 396.082H36.537C36.1539 396.082 35.7866 395.93 35.5151 395.66C35.2436 395.39 35.0901 395.023 35.0879 394.64V391.336C35.0919 390.954 35.246 390.588 35.5171 390.318C35.7881 390.048 36.1544 389.895 36.537 389.893Z" fill="#E5E7EB"/>
<path fill-rule="evenodd" clip-rule="evenodd" d="M71.382 236.922C46.742 236.922 26.765 216.663 26.765 191.676C26.765 166.689 46.742 146.431 71.382 146.431C96.022 146.431 115.999 166.689 115.999 191.676C115.999 216.663 96.022 236.922 71.382 236.922Z" fill="#0E9F6E"/>
<path d="M89.357 172.476L70.509 192.585L59.193 180.521" stroke="white" stroke-width="7.405" stroke-linecap="round" stroke-linejoin="round"/>
<path d="M51.678 211.835L70.526 191.726L81.842 203.79" stroke="white" stroke-width="7.405" stroke-linecap="round" stroke-linejoin="round"/>
</svg>
